<mxfile host="app.diagrams.net" modified="2025-10-23T20:38:00.000Z" agent="modernization" version="20.3.5" type="device">
  <diagram id="phase2" name="Distributed Architecture">
    <mxGraphModel dx="1000" dy="600" grid="1" gridSize="10" guides="1" tooltips="1" connect="1" arrows="1" fold="1" page="1" pageScale="1" pageWidth="1920" pageHeight="1080" background="#ffffff">
      <root>
        <mxCell id="0"/>
        <mxCell id="1" parent="0"/>
      </root>
    </mxGraphModel>
  </diagram>
</mxfile>
